# Blender v2.91.2 OBJ File: 'LegoCow.blend'
# www.blender.org
mtllib legoCowTail.mtl
o Tail_Cube.001
v -0.191206 -1.792230 0.072233
v -0.191206 0.207770 0.072233
v -0.191206 -1.792230 -0.228268
v -0.191206 0.207770 -0.228268
v 0.191206 -1.792230 0.072233
v 0.191206 0.207770 0.072233
v 0.191206 -1.792230 -0.228268
v 0.191206 0.207770 -0.228268
v -0.191206 -2.461424 -0.228268
v -0.191206 -2.461424 0.072233
v 0.191206 -2.461424 -0.228268
v 0.191206 -2.461424 0.072233
v -0.191206 -0.266731 0.072233
v -0.191206 -0.266731 -0.228268
v 0.191206 -0.266731 -0.228268
v 0.191206 -0.266731 0.072233
v -0.191206 -0.266731 0.221694
v -0.191206 0.207770 0.221694
v 0.191206 0.207770 0.221694
v 0.191206 -0.266731 0.221694
vt 0.625000 0.000000
vt 0.565687 0.250000
vt 0.565687 0.000000
vt 0.625000 0.250000
vt 0.565687 0.500000
vt 0.625000 0.500000
vt 0.565687 0.750000
vt 0.565687 1.000000
vt 0.565687 1.000000
vt 0.375000 1.000000
vt 0.375000 0.750000
vt 0.375000 0.750000
vt 0.875000 0.500000
vt 0.625000 0.750000
vt 0.375000 0.500000
vt 0.125000 0.750000
vt 0.125000 0.500000
vt 0.375000 0.500000
vt 0.375000 0.250000
vt 0.375000 0.250000
vt 0.375000 0.000000
vt 0.375000 0.000000
vt 0.625000 0.750000
vt 0.565687 0.750000
vt 0.875000 0.750000
vt 0.625000 0.000000
vt 0.375000 1.000000
vt 0.625000 1.000000
vt 0.875000 0.750000
vt 0.565687 0.000000
vn -0.7071 0.7071 0.0000
vn -0.7071 0.0000 -0.7071
vn -0.9045 -0.3015 0.3015
vn -0.5773 0.5773 -0.5773
vn 0.7071 0.0000 -0.7071
vn 0.5773 0.5773 -0.5773
vn 0.9045 -0.3015 0.3015
vn -0.5773 -0.5773 0.5773
vn -0.7071 0.0000 0.7071
vn 0.5773 -0.5773 0.5773
vn 0.7071 0.0000 0.7071
vn 0.7071 0.7071 0.0000
vn 0.5773 -0.5773 -0.5773
vn -0.5773 -0.5773 -0.5773
vn 0.5773 0.5773 0.5773
vn -0.5773 0.5773 0.5773
usemtl None
s 1
f 2/1/1 14/2/2 13/3/3
f 4/4/4 15/5/5 14/2/2
f 8/6/6 16/7/7 15/5/5
f 16/7/7 17/8/8 13/9/3
f 1/10/9 12/11/10 5/12/11
f 4/13/4 6/14/12 8/6/6
f 11/15/13 10/16/8 9/17/14
f 7/18/5 9/19/14 3/20/2
f 3/20/2 10/21/8 1/22/9
f 5/12/11 11/15/13 7/18/5
f 16/7/7 1/10/9 5/12/11
f 15/5/5 5/12/11 7/18/5
f 14/2/2 7/18/5 3/20/2
f 13/3/3 3/20/2 1/22/9
f 19/23/15 17/8/8 20/24/10
f 2/25/1 19/23/15 6/14/12
f 13/3/3 18/26/16 2/1/1
f 6/14/12 20/24/10 16/7/7
f 2/1/1 4/4/4 14/2/2
f 4/4/4 8/6/6 15/5/5
f 8/6/6 6/14/12 16/7/7
f 16/7/7 20/24/10 17/8/8
f 1/10/9 10/27/8 12/11/10
f 4/13/4 2/25/1 6/14/12
f 11/15/13 12/11/10 10/16/8
f 7/18/5 11/15/13 9/19/14
f 3/20/2 9/19/14 10/21/8
f 5/12/11 12/11/10 11/15/13
f 16/7/7 13/9/3 1/10/9
f 15/5/5 16/7/7 5/12/11
f 14/2/2 15/5/5 7/18/5
f 13/3/3 14/2/2 3/20/2
f 19/23/15 18/28/16 17/8/8
f 2/25/1 18/29/16 19/23/15
f 13/3/3 17/30/8 18/26/16
f 6/14/12 19/23/15 20/24/10
